<svg xmlns="http://www.w3.org/2000/svg" width="24.202" height="28" viewBox="0 0 24.202 28">
  <g id="Grupo_1422" data-name="Grupo 1422" transform="translate(-273.264 -883.876)">
    <path id="Caminho_1717" data-name="Caminho 1717" d="M423.5,891.516a9.85,9.85,0,0,1-1.878-3.381,5.3,5.3,0,0,1-.275-2.115,1.991,1.991,0,0,1,1.393-1.773,6.15,6.15,0,0,1,1.624-.312c.075-.007.167.032.222-.059h5.191c.4.054.8.09,1.2.167a2.5,2.5,0,0,1,1.791,1.014,2.648,2.648,0,0,1,.313,1.838,9.065,9.065,0,0,1-2.15,4.619c-1.234,0-2.468.009-3.7.009S424.746,891.519,423.5,891.516Z" transform="translate(-141.86)" fill="#fff"/>
    <path id="Caminho_1718" data-name="Caminho 1718" d="M289.839,1110.447a16.282,16.282,0,0,1,5.3,5.777,17.646,17.646,0,0,1,2.1,5.407,8.2,8.2,0,0,1,.049,3.62,3.98,3.98,0,0,1-2.678,2.89,14.633,14.633,0,0,1-4.614.722c-1.365.052-2.732.085-4.1.032-1.927-.074-3.855.01-5.78-.11a14.445,14.445,0,0,1-3.91-.672,4.155,4.155,0,0,1-2.935-3.984,12.759,12.759,0,0,1,.846-4.777,19.493,19.493,0,0,1,3.291-5.812,14.312,14.312,0,0,1,3.48-3.122C283.87,1110.433,286.855,1110.394,289.839,1110.447Zm.926,9.543a5.406,5.406,0,1,0-5.372,5.406A5.423,5.423,0,0,0,290.766,1119.99Z" transform="translate(0 -217.045)" fill="#fff"/>
    <path id="Caminho_1719" data-name="Caminho 1719" d="M509.341,1246.605c0-.533,0-.535-.518-.6a3.884,3.884,0,0,1-1.074-.292c-.152-.067-.229-.133-.167-.324a4.181,4.181,0,0,0,.171-.77c.029-.23.113-.2.28-.129a3.082,3.082,0,0,0,1.826.305c.289-.055.563-.159.626-.481s-.145-.521-.4-.682a5.233,5.233,0,0,0-1-.424,2.862,2.862,0,0,1-1.091-.652,1.724,1.724,0,0,1,.94-2.884c.313-.072.377-.192.364-.481-.024-.543-.007-.544.539-.569.386-.018.385-.018.387.367,0,.172-.046.379.033.5s.3.035.462.062a3.113,3.113,0,0,1,.909.269.158.158,0,0,1,.1.212c-.074.281-.145.563-.2.849-.033.181-.112.17-.242.106a3.112,3.112,0,0,0-1.483-.272.929.929,0,0,0-.495.126.488.488,0,0,0-.083.79,1.53,1.53,0,0,0,.566.31,6.062,6.062,0,0,1,1.489.657,1.69,1.69,0,0,1,.775,1.689,1.754,1.754,0,0,1-1.074,1.524,1.722,1.722,0,0,1-.541.178c-.182.019-.236.113-.223.291.016.235,0,.473.007.709.008.159-.052.216-.2.2a.834.834,0,0,0-.109,0C509.341,1247.186,509.341,1247.186,509.341,1246.605Z" transform="translate(-224.433 -339.869)" fill="#fff"/>
  </g>
</svg>
