<svg xmlns="http://www.w3.org/2000/svg" width="43.72" height="34.643" viewBox="0 0 43.72 34.643">
  <g id="Grupo_1466" data-name="Grupo 1466" transform="translate(-159 -907.934)">
    <g id="Grupo_1465" data-name="Grupo 1465">
      <g id="Grupo_1464" data-name="Grupo 1464">
        <g id="Grupo_1463" data-name="Grupo 1463">
          <g id="Grupo_1462" data-name="Grupo 1462">
            <g id="Grupo_1461" data-name="Grupo 1461">
              <g id="Grupo_1460" data-name="Grupo 1460" transform="translate(-1329.029 957.196)">
                <path id="Caminho_1749" data-name="Caminho 1749" d="M1509.895-14.619H1492a3.874,3.874,0,0,1-3.914-3.338,11.706,11.706,0,0,1-.018-2.2.922.922,0,0,1,.911-.787c.275-.008.549-.006.824,0,.144,0,.209-.056.2-.2,0-.089,0-.178,0-.267q0-12.666,0-25.332a2.436,2.436,0,0,1,1.783-2.428,2.4,2.4,0,0,1,.646-.087l34.907,0a2.423,2.423,0,0,1,2.43,2.391c0,.089,0,.178,0,.267V-21.44a1.909,1.909,0,0,1,0,.218c-.025.213.063.29.276.277.241-.015.485-.007.727,0a.931.931,0,0,1,.948.956,13.426,13.426,0,0,1-.045,2.129,3.879,3.879,0,0,1-3.874,3.243Zm-.012-6.33h18.3c.38,0,.38,0,.38-.389q0-7.708,0-15.415,0-4.981,0-9.962a1.423,1.423,0,0,0-.1-.64,1.261,1.261,0,0,0-1.264-.718q-17.294,0-34.587-.006a1.3,1.3,0,0,0-1.4,1.39q.024,12.676.01,25.353c0,.387,0,.387.382.387Zm.026,1.19h-20.215l-.291,0c-.1,0-.155.047-.154.146a8.67,8.67,0,0,0,.037,1.572,2.679,2.679,0,0,0,2.742,2.229h31.147c1.559,0,3.119,0,4.678,0a2.7,2.7,0,0,0,2.618-2.056,6.69,6.69,0,0,0,.071-1.5c.009-.395,0-.4-.394-.4Z" fill="#fff"/>
                <path id="Caminho_1750" data-name="Caminho 1750" d="M1608.707,22.464q7.527,0,15.054,0a1.7,1.7,0,0,1,1.7,1.279,2.114,2.114,0,0,1,.07.551q0,9.527,0,19.054a1.739,1.739,0,0,1-1.846,1.835h-29.963a1.739,1.739,0,0,1-1.846-1.835q0-9.527,0-19.054a1.8,1.8,0,0,1,1.848-1.842C1598.719,22.475,1603.713,22.464,1608.707,22.464Zm.01,21.53H1623.6c.569,0,.723-.152.723-.715q0-9.44,0-18.881c0-.081,0-.162,0-.242a.5.5,0,0,0-.5-.5c-.1-.008-.21,0-.315,0h-29.594a3.1,3.1,0,0,0-.363.009.5.5,0,0,0-.45.463c-.009.1-.006.194-.006.291q0,9.428,0,18.857c0,.081,0,.162.006.242a.507.507,0,0,0,.469.472,3.124,3.124,0,0,0,.315.006Z" transform="translate(-98.813 -68.239)" fill="#fff"/>
                <path id="Caminho_1751" data-name="Caminho 1751" d="M1692.179,134.977q0,1.151,0,2.3c0,.417-.235.687-.588.683a.622.622,0,0,1-.6-.683c0-1.252,0-2.5,0-3.756,0-.3,0-.3-.288-.262a5.353,5.353,0,1,0,6.148,6.281,1.253,1.253,0,0,1,.026-.143c.066-.208-.016-.27-.224-.269-1.268.006-2.537,0-3.8.005a.626.626,0,0,1-.581-.28.585.585,0,0,1,.374-.892,1.335,1.335,0,0,1,.289-.02h4.459c.532,0,.754.223.75.75a6.549,6.549,0,1,1-7.54-6.621,7.193,7.193,0,0,1,.891-.081.608.608,0,0,1,.689.684C1692.18,133.442,1692.179,134.21,1692.179,134.977Z" transform="translate(-187.457 -172.464)" fill="#fff"/>
                <path id="Caminho_1752" data-name="Caminho 1752" d="M1847.687,96.057q0-1.417,0-2.835c0-.537.228-.741.758-.728a6.547,6.547,0,0,1,6.352,5.99,4.59,4.59,0,0,1,.033.507.6.6,0,0,1-.573.631,2.661,2.661,0,0,1-.362.021q-2.653,0-5.306,0a2.467,2.467,0,0,1-.314-.014.593.593,0,0,1-.586-.664C1847.686,98,1847.687,97.026,1847.687,96.057Zm3.543,2.372c.711,0,1.422,0,2.133,0,.18,0,.239-.043.207-.239a5.206,5.206,0,0,0-.706-1.92,5.334,5.334,0,0,0-3.708-2.524c-.2-.037-.285-.008-.283.232q.018,2.072,0,4.144c0,.254.085.315.322.31C1849.873,98.421,1850.552,98.429,1851.23,98.429Z" transform="translate(-342.22 -134.883)" fill="#fff"/>
                <path id="Caminho_1753" data-name="Caminho 1753" d="M2041.426,291.99c-1.276,0-2.552,0-3.829,0a.589.589,0,0,1-.294-1.113.687.687,0,0,1,.327-.073q3.8,0,7.609,0a.58.58,0,0,1,.631.613.573.573,0,0,1-.641.572Q2043.329,291.992,2041.426,291.99Z" transform="translate(-522.336 -323.577)" fill="#fff"/>
                <path id="Caminho_1754" data-name="Caminho 1754" d="M2041.4,121.932q-1.914,0-3.829,0a.6.6,0,0,1-.586-.387.564.564,0,0,1,.144-.623.582.582,0,0,1,.413-.176c.1,0,.194,0,.291,0h7.2a2.436,2.436,0,0,1,.266.005.578.578,0,0,1,.541.627.56.56,0,0,1-.584.555c-.945.006-1.89,0-2.835,0Z" transform="translate(-522.304 -161.761)" fill="#fff"/>
                <path id="Caminho_1755" data-name="Caminho 1755" d="M2041.46,206.948q-1.914,0-3.828,0a.586.586,0,0,1-.606-.423.577.577,0,0,1,.219-.643.661.661,0,0,1,.411-.122q3.792,0,7.584,0a.588.588,0,0,1,.65.6.577.577,0,0,1-.648.589Q2043.35,206.951,2041.46,206.948Z" transform="translate(-522.353 -242.656)" fill="#fff"/>
                <path id="Caminho_1756" data-name="Caminho 1756" d="M2057.789,376.942c-.428,0-.855,0-1.283,0a.6.6,0,0,1-.635-.564.6.6,0,0,1,.612-.619q1.307-.015,2.615,0a.593.593,0,1,1-.025,1.183C2058.645,376.945,2058.217,376.942,2057.789,376.942Z" transform="translate(-540.31 -404.406)" fill="#fff"/>
                <path id="Caminho_1757" data-name="Caminho 1757" d="M2166.28,376.9c-.242,0-.484.005-.726,0a.59.59,0,0,1-.609-.564.582.582,0,0,1,.538-.61c.54-.023,1.081-.023,1.621,0a.589.589,0,0,1-.049,1.174C2166.8,376.907,2166.538,376.9,2166.28,376.9Z" transform="translate(-644.095 -404.366)" fill="#fff"/>
                <path id="Caminho_1758" data-name="Caminho 1758" d="M1971.966,376.9c-.25,0-.5.005-.75,0a.59.59,0,0,1-.036-1.178c.524-.019,1.049-.018,1.573,0a.6.6,0,0,1,.57.608.611.611,0,0,1-.606.572h-.75Z" transform="translate(-459.208 -404.36)" fill="#fff"/>
              </g>
            </g>
          </g>
        </g>
      </g>
    </g>
  </g>
</svg>
