<svg xmlns="http://www.w3.org/2000/svg" width="19.445" height="25.966" viewBox="0 0 19.445 25.966">
  <g id="Grupo_42" data-name="Grupo 42" transform="translate(0 0)">
    <path id="Caminho_26" data-name="Caminho 26" d="M-1521.893-92.371q0,6.022,0,12.044c0,.045,0,.09,0,.134,0,.079-.031.122-.114.121-.319,0-.637,0-.956,0a.416.416,0,0,1-.167-.059c-.4-.2-.8-.405-1.194-.617a.316.316,0,0,0-.333.009c-.418.222-.842.432-1.259.653a.252.252,0,0,1-.264,0c-.437-.229-.877-.45-1.314-.678a.244.244,0,0,0-.252,0c-.427.225-.859.441-1.286.668a.276.276,0,0,1-.292.008c-.43-.229-.866-.449-1.3-.677a.257.257,0,0,0-.266,0c-.428.224-.861.438-1.286.666a.287.287,0,0,1-.3,0c-.422-.224-.85-.437-1.271-.662a.28.28,0,0,0-.293,0c-.374.2-.753.388-1.126.586a.792.792,0,0,1-.413.1c-.244-.009-.488-.009-.732,0-.139,0-.18-.05-.179-.184,0-.692,0-1.385,0-2.077q0-2.212,0-4.423,0-5.743,0-11.487,0-3.048,0-6.1a.781.781,0,0,0-.544-.788.782.782,0,0,0-1.029.654c-.005.064,0,.129,0,.194q0,2.966,0,5.932,0,5.117,0,10.235c0,.4,0,.8,0,1.2,0,.088-.015.181.059.253a.07.07,0,0,1,.016.037c-.174.114-.064.285-.068.421a2.7,2.7,0,0,1-.179,1.155c-.041.083.015.093.077.093.219,0,.438.005.657,0,.124,0,.167.045.163.167-.007.184,0,.369,0,.553,0,.076-.015.127-.1.126a23.775,23.775,0,0,1-2.537-.037,1.591,1.591,0,0,1-1.354-1.569q.006-4.072,0-8.144v-9.414c0-.05,0-.1,0-.149-.011-.119.045-.155.159-.154q.628.006,1.255,0c.114,0,.163.036.158.155-.007.184,0,.369,0,.553,0,.1-.04.136-.133.136-.14,0-.28.008-.418,0s-.2.036-.2.192c.011.288,0,.578,0,.867q0,7.882,0,15.765a.954.954,0,0,0,.207.682.767.767,0,0,0,.84.232.8.8,0,0,0,.55-.728c0-.065,0-.129,0-.194q0-9.2,0-18.395a1.626,1.626,0,0,1,1.264-1.653,1.7,1.7,0,0,1,.444-.052q6.807,0,13.613,0a1.647,1.647,0,0,1,1.684,1.378,1.926,1.926,0,0,1,.016.328Q-1521.892-98.341-1521.893-92.371Zm-.824-.334h0q0-1.061,0-2.122,0-4.737,0-9.474a.9.9,0,0,0-.071-.379.8.8,0,0,0-.786-.492q-4.759,0-9.519,0h-2.555c-.2,0-.2,0-.125.175a1.586,1.586,0,0,1,.128.625q0,2,0,3.991c0,.522,0,1.043,0,1.565q0,5.559,0,11.118,0,3.3,0,6.6c0,.191.026.209.194.122.447-.23.9-.457,1.337-.7a.392.392,0,0,1,.427,0c.4.221.814.42,1.219.635a.289.289,0,0,0,.306-.005c.412-.221.83-.432,1.243-.652a.307.307,0,0,1,.321,0c.413.22.833.427,1.245.649a.325.325,0,0,0,.346,0c.411-.223.831-.431,1.243-.653a.276.276,0,0,1,.292,0c.418.221.841.432,1.259.655a.316.316,0,0,0,.333,0c.394-.213.8-.409,1.188-.628a.391.391,0,0,1,.427.006c.442.24.892.464,1.34.692.186.095.206.08.207-.133q0-.1,0-.194Z" transform="translate(1541.338 106.017)" fill="#fff"/>
    <path id="Caminho_27" data-name="Caminho 27" d="M-1188.372,361.592c.06-.279-.037-.412-.322-.528a1.351,1.351,0,0,1-.875-1.317c0-.149,0-.3,0-.447,0-.1.042-.142.142-.14.179,0,.358,0,.536,0,.111,0,.15.045.146.151,0,.134,0,.268,0,.4a.638.638,0,0,0,.669.646q.134,0,.268,0a.62.62,0,0,0,.635-.481.632.632,0,0,0-.284-.682c-.474-.319-.947-.638-1.424-.952a1.465,1.465,0,0,1,.021-2.509,1.462,1.462,0,0,1,.37-.153.143.143,0,0,0,.117-.161c0-.184,0-.368,0-.551,0-.106.036-.154.148-.151.183.005.368.005.551,0,.111,0,.149.045.147.151,0,.179,0,.358,0,.536a.146.146,0,0,0,.12.172,1.5,1.5,0,0,1,1.1,1.548c0,.1,0,.209,0,.313,0,.084-.032.13-.123.128q-.3,0-.6,0c-.091,0-.123-.044-.122-.129,0-.149,0-.3,0-.447a.622.622,0,0,0-.628-.623,1.155,1.155,0,0,0-.64.08.621.621,0,0,0-.058,1.047c.439.307.883.608,1.336.894a1.6,1.6,0,0,1,.812,1.135,1.456,1.456,0,0,1-1.017,1.6c-.142.043-.191.1-.181.248.012.168,0,.338,0,.506,0,.1-.046.144-.143.144-.184,0-.368,0-.551,0-.105,0-.156-.043-.151-.152S-1188.372,361.686-1188.372,361.592Z" transform="translate(1200.098 -340.934)" fill="#fff"/>
    <path id="Caminho_28" data-name="Caminho 28" d="M-1306.07,15.9h4.991c.272,0,.272,0,.272.265,0,.139,0,.278,0,.417s-.048.173-.168.161a1.039,1.039,0,0,0-.1,0h-10.011c-.248,0-.248,0-.248-.241,0-.144.007-.288,0-.432s.05-.172.175-.171c.492,0,.983,0,1.475,0Z" transform="translate(1318.25 -12.261)" fill="#fff"/>
    <path id="Caminho_29" data-name="Caminho 29" d="M-1306.076,286.835h5.036c.226,0,.226,0,.227.22,0,.149-.007.3,0,.447s-.051.191-.184.176a.654.654,0,0,0-.075,0H-1311.1c-.248,0-.248,0-.248-.242,0-.144.006-.288,0-.432s.049-.171.175-.17c.536,0,1.073,0,1.609,0Z" transform="translate(1318.256 -275.091)" fill="#fff"/>
    <path id="Caminho_30" data-name="Caminho 30" d="M-1308.74,70.865c-.814,0-1.628,0-2.442,0-.147,0-.207-.04-.2-.193.011-.173.005-.347,0-.521,0-.088.038-.128.124-.128h4.914c.24,0,.242,0,.243.238,0,.144-.005.288,0,.432s-.044.173-.173.172c-.7,0-1.41,0-2.115,0Z" transform="translate(1318.26 -64.762)" fill="#fff"/>
    <path id="Caminho_31" data-name="Caminho 31" d="M-1308.762,125.58c-.809,0-1.619,0-2.428,0-.146,0-.209-.04-.2-.194s0-.3,0-.447c0-.2,0-.2.2-.2h4.871c.212,0,.212,0,.213.218,0,.154-.005.308,0,.462.005.117-.047.16-.157.159-.184,0-.367,0-.551,0Z" transform="translate(1318.269 -117.843)" fill="#fff"/>
    <path id="Caminho_32" data-name="Caminho 32" d="M-1308.663,178.658c.809,0,1.619,0,2.428,0,.141,0,.2.038.191.181-.007.168,0,.338,0,.506,0,.115-.048.159-.161.157-.223,0-.447,0-.67,0h-4.2c-.249,0-.249,0-.249-.242,0-.149.006-.3,0-.447s.063-.154.174-.154C-1310.321,178.66-1309.492,178.658-1308.663,178.658Z" transform="translate(1318.207 -170.146)" fill="#fff"/>
    <path id="Caminho_33" data-name="Caminho 33" d="M-1308.632,233.633h-2.429c-.2,0-.2,0-.2-.2q0-.216,0-.432c0-.21,0-.211.22-.211h4.857c.2,0,.2.005.2.2,0,.144,0,.287,0,.431,0,.195-.013.214-.207.214Z" transform="translate(1318.146 -222.663)" fill="#fff"/>
    <path id="Caminho_34" data-name="Caminho 34" d="M-1309.529-37.3c-.546,0-1.092,0-1.638,0-.143,0-.2-.044-.187-.188s0-.3,0-.447c0-.207,0-.21.206-.21h2.338c.313,0,.625,0,.938,0,.129,0,.179.043.172.173-.008.158,0,.318,0,.476,0,.188-.007.194-.191.194Z" transform="translate(1318.233 40.17)" fill="#fff"/>
    <path id="Caminho_35" data-name="Caminho 35" d="M-1052.694,232.725c.417,0,.833,0,1.25,0,.132,0,.191.036.184.177-.009.173,0,.347,0,.52,0,.1-.029.148-.135.148q-1.3,0-2.6,0c-.084,0-.13-.032-.13-.122,0-.2,0-.4,0-.595,0-.114.068-.125.157-.125C-1053.547,232.726-1053.12,232.725-1052.694,232.725Z" transform="translate(1068.705 -222.598)" fill="#fff"/>
    <path id="Caminho_36" data-name="Caminho 36" d="M-1052.785,70.863c-.417,0-.834,0-1.25,0-.132,0-.192-.036-.185-.176.009-.173.005-.347,0-.521,0-.1.035-.146.138-.146q1.295,0,2.59,0c.1,0,.142.048.141.147,0,.184,0,.367,0,.551,0,.113-.051.144-.155.144C-1051.932,70.862-1052.359,70.863-1052.785,70.863Z" transform="translate(1068.793 -64.761)" fill="#fff"/>
    <path id="Caminho_37" data-name="Caminho 37" d="M-1052.8,178.684c.422,0,.844,0,1.266,0,.134,0,.175.051.169.176-.007.154,0,.308,0,.462,0,.192-.012.2-.2.2h-1.5c-.332,0-.665,0-1,0-.119,0-.172-.038-.167-.164.007-.168.005-.338,0-.506,0-.125.038-.177.172-.175C-1053.64,178.689-1053.218,178.684-1052.8,178.684Z" transform="translate(1068.805 -170.172)" fill="#fff"/>
    <path id="Caminho_38" data-name="Caminho 38" d="M-1052.832,124.65c.422,0,.843.005,1.265,0,.145,0,.194.049.186.19-.009.163-.006.327,0,.491,0,.112-.039.164-.155.163-.257,0-.514,0-.771-.013-.153-.008-.307.014-.46.013-.317,0-.634-.013-.95-.02a1.438,1.438,0,0,0-.311.027c-.156.031-.219-.022-.221-.183s.007-.338,0-.506c-.007-.123.031-.164.156-.161C-1053.675,124.655-1053.253,124.65-1052.832,124.65Z" transform="translate(1068.825 -117.753)" fill="#fff"/>
    <path id="Caminho_39" data-name="Caminho 39" d="M-1202.738,639.86c-.084,0-.169-.005-.253,0-.119.009-.174-.034-.169-.16.007-.179,0-.357,0-.536,0-.1.035-.147.138-.146.189,0,.377,0,.566,0,.09,0,.14.032.138.13q0,.29,0,.581c0,.1-.043.133-.137.129s-.189,0-.283,0Z" transform="translate(1213.27 -616.741)" fill="#fff"/>
    <path id="Caminho_40" data-name="Caminho 40" d="M-1148.259,639.467c-.013.109.057.277-.029.366s-.255.028-.387.029c-.429,0-.431,0-.428-.432,0-.459-.062-.4.4-.407h.015C-1148.259,639.024-1148.259,639.024-1148.259,639.467Z" transform="translate(1160.828 -616.746)" fill="#fff"/>
    <path id="Caminho_41" data-name="Caminho 41" d="M-1310.837,639.856c-.417,0-.417,0-.417-.411,0-.429,0-.432.431-.429.476,0,.409-.055.413.407C-1310.407,639.856-1310.41,639.856-1310.837,639.856Z" transform="translate(1318.132 -616.738)" fill="#fff"/>
    <path id="Caminho_42" data-name="Caminho 42" d="M-1256.757,639.907c-.094,0-.189,0-.283,0s-.125-.04-.124-.127c0-.194,0-.387,0-.581,0-.085.031-.132.12-.132h.6a.112.112,0,0,1,.126.129c0,.194,0,.387,0,.581,0,.1-.045.133-.137.13S-1256.658,639.907-1256.757,639.907Z" transform="translate(1265.658 -616.789)" fill="#fff"/>
    <path id="Caminho_43" data-name="Caminho 43" d="M-1094.338,639.427c0-.4,0-.4.395-.4.428,0,.428,0,.428.433,0,.408,0,.408-.406.408s-.417,0-.417-.412Z" transform="translate(1107.699 -616.75)" fill="#fff"/>
    <path id="Caminho_44" data-name="Caminho 44" d="M-1039.451,639.459c0,.407,0,.407-.407.407s-.415,0-.415-.413c0-.428,0-.428.424-.428.4,0,.4,0,.4.4Z" transform="translate(1055.25 -616.748)" fill="#fff"/>
    <path id="Caminho_45" data-name="Caminho 45" d="M-986.387,639.342a2.087,2.087,0,0,0,0-.223c-.016-.147.036-.21.19-.2s.317.005.476,0c.105,0,.155.036.152.147-.005.183,0,.367,0,.55,0,.1-.034.147-.138.144-.178,0-.357,0-.536,0-.1,0-.148-.034-.142-.138s0-.188,0-.283Z" transform="translate(1002.985 -616.644)" fill="#fff"/>
  </g>
</svg>
