<svg xmlns="http://www.w3.org/2000/svg" width="21.382" height="25.966" viewBox="0 0 21.382 25.966">
  <g id="Grupo_41" data-name="Grupo 41" transform="translate(0 0)">
    <path id="Caminho_17" data-name="Caminho 17" d="M73.708,123.7c0-2.946.012-5.892-.008-8.838a1.368,1.368,0,0,1,1.431-1.421c3.561.028,7.123.014,10.684.018a2.577,2.577,0,0,1,.6.036.382.382,0,0,1,.331.377.439.439,0,0,1-.266.439.716.716,0,0,1-.332.05c-2.719,0-5.438.006-8.156-.018-.938-.008-1.876-.014-2.813-.022-.435,0-.555.12-.555.559q0,8.8,0,17.6a2.622,2.622,0,0,0,1.926,2.677,3.435,3.435,0,0,0,1.751-.046,1.525,1.525,0,0,0,1.024-1.06,5.548,5.548,0,0,0,.262-1.635c.015-.285,0-.572,0-.858,0-.58.1-.687.674-.687q2.163,0,4.326.006,2.41.005,4.821.014c.451,0,.9.008,1.354.032.231.012.3-.066.294-.295-.061-2.72-.038-5.441-.049-8.161,0-1.057,0-2.114,0-3.171a1.1,1.1,0,0,1,.013-.259.423.423,0,0,1,.4-.348.411.411,0,0,1,.44.3,1.339,1.339,0,0,1,.048.463q.008,5.563.017,11.126c0,.356,0,.35.365.326a2.344,2.344,0,0,1,.85.087A1.145,1.145,0,0,1,94,132.2a4.615,4.615,0,0,1-1.068,2.738,3.676,3.676,0,0,1-2.921,1.255q-6.475,0-12.95-.046a3.447,3.447,0,0,1-3.314-3.062,7.238,7.238,0,0,1-.041-.752Q73.708,128.017,73.708,123.7Zm12.961,8.088v-.008q-1.55,0-3.1,0c-.947,0-1.893,0-2.84-.01-.2,0-.286.06-.274.268a5.683,5.683,0,0,1,0,.7,4.782,4.782,0,0,1-.6,2.236c-.047.076-.169.145-.109.241.043.07.162.03.247.03q2.11,0,4.22.007c1.112,0,2.223,0,3.335.013a26.981,26.981,0,0,0,2.888-.025,2.7,2.7,0,0,0,1.7-.758,3.616,3.616,0,0,0,.974-2.162c.049-.334-.018-.444-.347-.508a1.619,1.619,0,0,0-.31-.023Z" transform="translate(-73.7 -110.227)" fill="#fff"/>
    <path id="Caminho_18" data-name="Caminho 18" d="M354.55,57.246a3.653,3.653,0,1,1-3.636-3.7A3.672,3.672,0,0,1,354.55,57.246Zm-3.66,2.76a2.774,2.774,0,1,0-2.727-2.792A2.758,2.758,0,0,0,350.89,60.006Z" transform="translate(-333.167 -53.544)" fill="#fff"/>
    <path id="Caminho_19" data-name="Caminho 19" d="M118.114,170.661a2.28,2.28,0,0,1-2.127-3,7.714,7.714,0,0,1,1.842-2.674.42.42,0,0,1,.662.028,10.293,10.293,0,0,1,1.73,2.439A2.3,2.3,0,0,1,118.114,170.661Zm-1.332-2.3a1.4,1.4,0,0,0,.859,1.3,1.366,1.366,0,0,0,1.743-1.779,7.994,7.994,0,0,0-1.138-1.743c-.081-.1-.151-.1-.235,0a7.561,7.561,0,0,0-1.124,1.719A1.1,1.1,0,0,0,116.782,168.366Z" transform="translate(-113.596 -159.076)" fill="#fff"/>
    <path id="Caminho_20" data-name="Caminho 20" d="M123.926,314.116h.9a.546.546,0,0,1,.55.257.53.53,0,0,1-.1.6q-.854,1.186-1.7,2.377a.426.426,0,0,1-.6.165.45.45,0,0,1-.142-.653c.233-.35.484-.687.728-1.029.146-.2.291-.407.44-.608.094-.126.057-.168-.089-.167-.313,0-.626,0-.939,0a.417.417,0,0,1-.425-.222.476.476,0,0,1,.042-.532c.595-.738,1.191-1.474,1.8-2.2a.42.42,0,0,1,.64-.061.43.43,0,0,1,.049.643c-.291.374-.6.737-.894,1.1C124.112,313.876,124.043,313.967,123.926,314.116Z" transform="translate(-119.868 -298.535)" fill="#fff"/>
    <path id="Caminho_21" data-name="Caminho 21" d="M247.556,348.644c1.074,0,2.147,0,3.221,0a.482.482,0,0,1,.512.307.435.435,0,0,1-.29.576,1.485,1.485,0,0,1-.4.045q-3.073,0-6.146,0a1.5,1.5,0,0,1-.345-.034.434.434,0,0,1-.352-.47.43.43,0,0,1,.417-.415c.213-.018.429-.008.644-.008Z" transform="translate(-235.01 -333.254)" fill="#fff"/>
    <path id="Caminho_22" data-name="Caminho 22" d="M255.655,192.662h3.085a.464.464,0,0,1,.479.315.421.421,0,0,1-.114.466.583.583,0,0,1-.446.146c-.322,0-.644,0-.966,0h-4.882a2.08,2.08,0,0,1-.321-.015.47.47,0,0,1-.429-.469.465.465,0,0,1,.482-.441c.331-.008.662,0,.992,0Z" transform="translate(-242.88 -185.406)" fill="#fff"/>
    <path id="Caminho_23" data-name="Caminho 23" d="M246.488,387.759c-.742,0-1.483,0-2.225,0-.353,0-.571-.228-.529-.524a.5.5,0,0,1,.55-.4c.491-.007.983,0,1.474,0q1.394,0,2.788,0a1.665,1.665,0,0,1,.32.02.454.454,0,0,1-.047.9c-.276.018-.554.009-.831.009h-1.5Z" transform="translate(-234.939 -369.446)" fill="#fff"/>
    <path id="Caminho_24" data-name="Caminho 24" d="M254.708,228.68c.68,0,1.359,0,2.039,0,.354,0,.56.156.577.426a.492.492,0,0,1-.547.5q-2.093.013-4.185,0a.483.483,0,0,1-.537-.479c.007-.269.223-.444.562-.445C253.313,228.679,254.01,228.68,254.708,228.68Z" transform="translate(-242.827 -219.548)" fill="#fff"/>
    <path id="Caminho_25" data-name="Caminho 25" d="M381.732,97.121a.075.075,0,0,1-.026,0,2.736,2.736,0,0,1-1.23-.89.37.37,0,0,1,.088-.489.418.418,0,0,1,.517-.086,2.847,2.847,0,0,1,.441.3c.125.1.2.085.308-.034.483-.538.976-1.066,1.466-1.6a.513.513,0,0,1,.491-.212.452.452,0,0,1,.223.773c-.447.51-.912,1-1.37,1.5-.169.184-.34.366-.508.551A.482.482,0,0,1,381.732,97.121Z" transform="translate(-364.559 -91.926)" fill="#fff"/>
  </g>
</svg>
