<svg xmlns="http://www.w3.org/2000/svg" width="18.559" height="29.796" viewBox="0 0 18.559 29.796">
  <g id="Grupo_40" data-name="Grupo 40" transform="translate(0 0)">
    <path id="Caminho_10" data-name="Caminho 10" d="M-332.335,440.013h7.393c.7,0,.793.094.862.79.066.662.153,1.321.241,1.981.08.6-.055.785-.662.762-.327-.012-.439.132-.523.416-.677,2.287-1.367,4.571-2.052,6.856-.149.5-.227.577-.745.578q-4.546.008-9.091,0c-.468,0-.566-.09-.7-.545-.7-2.317-1.394-4.632-2.079-6.952-.076-.259-.188-.383-.461-.347a1.266,1.266,0,0,1-.3,0,.43.43,0,0,1-.427-.518q.142-1.222.3-2.443c.055-.438.174-.555.621-.566.61-.015,1.221-.007,1.831-.007Zm0,.813H-336.8c-.9,0-1.8,0-2.7,0-.167,0-.314.009-.339.223-.056.484-.119.968-.174,1.453-.014.125.036.241.177.226.6-.066.728.349.861.8.654,2.225,1.328,4.444,1.98,6.669a.462.462,0,0,0,.531.4q4.08-.019,8.159,0a.519.519,0,0,0,.6-.443c.667-2.279,1.358-4.551,2.04-6.825.154-.515.193-.556.734-.588.206-.012.267-.079.234-.288a8.23,8.23,0,0,1-.137-1.188c-.005-.383-.176-.445-.514-.443C-327.672,440.833-330,440.827-332.335,440.827Z" transform="translate(341.601 -421.604)" fill="#fff"/>
    <path id="Caminho_11" data-name="Caminho 11" d="M-295.909,178.217c0-.777,0-1.554,0-2.331,0-.244-.084-.354-.341-.381a5.892,5.892,0,0,1-5.052-4.752,5.918,5.918,0,0,1,3.918-6.692,5.923,5.923,0,0,1,7.767,5.089,5.929,5.929,0,0,1-4.915,6.338.742.742,0,0,1-.165.018c-.331-.025-.405.147-.4.448.011,1.5.005,3,0,4.5,0,.479-.12.679-.4.678s-.413-.219-.414-.678C-295.91,179.7-295.908,178.96-295.909,178.217Zm-4.681-8.582a5.128,5.128,0,0,0,4.829,5.127,5.183,5.183,0,0,0,5.377-4.893,5.2,5.2,0,0,0-4.826-5.314A5.128,5.128,0,0,0-300.589,169.635Z" transform="translate(304.745 -163.747)" fill="#fff"/>
    <path id="Caminho_12" data-name="Caminho 12" d="M-345.945,322.906a5.627,5.627,0,0,1-5.672-5.21,6.974,6.974,0,0,1,.066-1.457.514.514,0,0,1,.472-.48,5.655,5.655,0,0,1,6.646,4.9,6.946,6.946,0,0,1-.049,1.689.521.521,0,0,1-.5.484A5.2,5.2,0,0,1-345.945,322.906Zm-4-6.414c-.089,0-.177,0-.266,0-.606.008-.616.023-.626.645a4.74,4.74,0,0,0,1.727,3.838,4.6,4.6,0,0,0,3.609,1.112c.178-.018.276-.081.3-.281A4.811,4.811,0,0,0-349.947,316.492Z" transform="translate(351.631 -305.544)" fill="#fff"/>
    <path id="Caminho_13" data-name="Caminho 13" d="M-180.8,322.991a4.976,4.976,0,0,1-.878-.075.575.575,0,0,1-.549-.52,5.681,5.681,0,0,1,4.619-6.565,6.548,6.548,0,0,1,1.923,0,.569.569,0,0,1,.541.523,5.658,5.658,0,0,1-4.744,6.584A7.024,7.024,0,0,1-180.8,322.991Zm-.7-1.622c0,.81,0,.816.719.842h.066a4.8,4.8,0,0,0,3.7-1.734,4.737,4.737,0,0,0,1.141-3.51c-.013-.216-.067-.366-.342-.39A4.8,4.8,0,0,0-181.5,321.368Z" transform="translate(193.612 -305.629)" fill="#fff"/>
    <path id="Caminho_14" data-name="Caminho 14" d="M-285.839,481.728h-4.528c-.47,0-.687-.127-.688-.4s.217-.419.673-.419q4.545,0,9.09,0c.044,0,.089,0,.133,0,.345.018.543.173.536.42s-.2.392-.554.393Q-283.508,481.731-285.839,481.728Z" transform="translate(295.091 -459.778)" fill="#fff"/>
    <path id="Caminho_15" data-name="Caminho 15" d="M-238.9,200.6a.662.662,0,0,0-.271-.422,2.976,2.976,0,0,0-.927-.439,4.156,4.156,0,0,1-1.265-.577,1.323,1.323,0,0,1-.571-1.363,1.23,1.23,0,0,1,1-1.076c.4-.078.52-.256.462-.624a.447.447,0,0,1,.016-.165c.05-.214.161-.376.4-.366a.354.354,0,0,1,.375.386c-.088.578.2.79.7.929a1.3,1.3,0,0,1,.767.7.406.406,0,0,1-.134.606c-.228.132-.4.01-.535-.18a1.8,1.8,0,0,0-1.915-.509.551.551,0,0,0-.151.966,2.411,2.411,0,0,0,.885.445,5.234,5.234,0,0,1,1.192.5,1.392,1.392,0,0,1,.734,1.447,1.353,1.353,0,0,1-1.181,1.145c-.279.052-.361.178-.353.448.012.46-.141.676-.418.664s-.412-.226-.386-.662a.456.456,0,0,0-.412-.55,1.545,1.545,0,0,1-1.067-.879.373.373,0,0,1,.171-.537.35.35,0,0,1,.51.161,1.1,1.1,0,0,0,.856.559,2.9,2.9,0,0,0,.928.021A.618.618,0,0,0-238.9,200.6Z" transform="translate(249.303 -193.445)" fill="#fff"/>
  </g>
</svg>
