<svg xmlns="http://www.w3.org/2000/svg" width="22.891" height="20.262" viewBox="0 0 22.891 20.262">
  <g id="Grupo_58" data-name="Grupo 58" transform="translate(0 0)">
    <g id="Grupo_57" data-name="Grupo 57" transform="translate(4.166)">
      <path id="Caminho_50" data-name="Caminho 50" d="M-2049.04,68.65c-2.358,0-4.716,0-7.074,0a1.433,1.433,0,0,1-1.48-1.062,1.449,1.449,0,0,1,1.237-1.8,3.935,3.935,0,0,1,.555-.019q6.493,0,12.986,0a2.837,2.837,0,0,1,.6.039.431.431,0,0,1,.37.473.442.442,0,0,1-.419.433,4.575,4.575,0,0,1-.555.016l-12.885,0a3.122,3.122,0,0,0-.553.025.433.433,0,0,0-.391.5.421.421,0,0,0,.422.42c.183.017.369.013.555.013,4.5,0,8.995.044,13.491-.02a3.054,3.054,0,0,1,3.2,3.1q.06,4.319,0,8.64a3.027,3.027,0,0,1-3.208,3.091c-2.44-.076-4.884-.018-7.327-.02-.266,0-.556.044-.588-.366s.1-.605.561-.6c2.072.019,4.144.008,6.215.008.354,0,.709-.024,1.061,0,1.627.13,2.253-.994,2.334-2.238.021-.335-.01-.674.009-1.01.019-.358-.147-.472-.484-.469-.909.011-1.819-.005-2.729,0-2.74.028-3.257-2.568-2.427-4.263a2.152,2.152,0,0,1,2.058-1.225c1.028,0,2.055-.012,3.083.005.366.006.523-.107.5-.49a9.321,9.321,0,0,0-.1-1.559,1.915,1.915,0,0,0-2-1.632Q-2045.527,68.646-2049.04,68.65Zm7,8.142c.554,0,1.109,0,1.663,0,.279,0,.446-.076.443-.4-.008-.907-.005-1.814,0-2.721,0-.282-.122-.389-.4-.387-1.092.006-2.184-.012-3.276.011a1.381,1.381,0,0,0-1.316,1.291c-.122,1.176.248,1.968,1.017,2.158a1.972,1.972,0,0,0,.45.041C-2042.976,76.794-2042.506,76.791-2042.036,76.792Z" transform="translate(2057.674 -65.764)" fill="#616ef0"/>
      <path id="Caminho_52" data-name="Caminho 52" d="M-2056.922,114.185c0,.471,0,.942,0,1.413,0,.328-.163.434-.474.432s-.538-.04-.535-.42c.006-.942,0-1.883.012-2.825.005-.323.127-.638.514-.618s.477.326.48.656C-2056.918,113.277-2056.921,113.731-2056.922,114.185Z" transform="translate(2057.929 -107.475)" fill="#616ef0"/>
      <path id="Caminho_53" data-name="Caminho 53" d="M-1918.46,148.8a.868.868,0,0,1-.832.9.866.866,0,0,1-.918-.812.923.923,0,0,1,.86-.944A.91.91,0,0,1-1918.46,148.8Z" transform="translate(1934.131 -139.64)" fill="#616ef0"/>
    </g>
    <g id="Grupo_56" data-name="Grupo 56" transform="translate(0 9.199)">
      <path id="Caminho_51" data-name="Caminho 51" d="M-2088.078,162.3a5.54,5.54,0,0,1-5.521,5.534,5.591,5.591,0,0,1-5.54-5.538,5.608,5.608,0,0,1,5.391-5.525A5.514,5.514,0,0,1-2088.078,162.3Zm-.963,0a4.569,4.569,0,0,0-4.612-4.561,4.629,4.629,0,0,0-4.52,4.571,4.626,4.626,0,0,0,4.584,4.565A4.57,4.57,0,0,0-2089.041,162.3Z" transform="translate(2099.139 -156.771)" fill="#616ef0"/>
      <path id="Caminho_54" data-name="Caminho 54" d="M-2072.821,180.646c0,1.327,0,1.327,1.323,1.327.32,0,.64-.007.959.009.282.014.5.154.51.454.009.329-.214.482-.522.489-.538.012-1.079.037-1.614,0-.5-.035-.711.109-.664.64.044.484,0,.975.01,1.463,0,.353-.066.687-.487.678s-.483-.349-.482-.7c0-.538-.015-1.077,0-1.615.012-.355-.134-.476-.478-.466-.555.017-1.11,0-1.666,0-.312,0-.606-.082-.622-.443-.017-.387.276-.505.612-.511.5-.008,1.012-.037,1.514,0,.529.044.681-.168.643-.666s-.008-.975-.007-1.463c0-.354.1-.673.513-.669s.458.325.456.654C-2072.823,180.108-2072.821,180.377-2072.821,180.646Z" transform="translate(2078.834 -176.919)" fill="#616ef0"/>
    </g>
  </g>
</svg>
